<svg xmlns="http://www.w3.org/2000/svg" data-name="Layer 2" viewBox="0 0 128 128" id="cupcake"><path fill="#663628" d="M24 65.977a16.12 16.12 0 0 1 6.111-8.375l67.75-.022A16.139 16.139 0 0 1 104 65.977c-7.657 29.63-71.765 31.823-80 0Z"></path><path fill="#592d23" d="M65.964 68.765c-17.027 0-32.14-1.512-41.614-3.848-.13.35-.25.702-.35 1.06 8.235 31.823 72.342 29.63 80 0-.024-.087-.059-.17-.085-.256-9.48 1.872-22.97 3.044-37.95 3.044Z"></path><path fill="#ea5785" d="m24 66.612 5.474 8.51 4.737-2.83 7.561 5.975 7.495-3.514 8.047 5.135L64 75.123l6.686 4.765 8.047-5.135 7.495 3.514 7.561-5.975 4.737 2.83 5.474-8.51c.247 1.297-9.784 46.96-9.784 46.96 0 3.55-13.528 6.428-30.216 6.428s-30.216-2.878-30.216-6.429Z"></path><path fill="#e83f6b" d="m57.314 79.888-8.047-5.135-.041.02 5.308 44.903c2.979.21 6.159.324 9.466.324V75.123zm25.113 38.777L93.083 72.85l-6.855 5.417-7.495-3.514-.558.356-5.273 44.607c3.487-.228 6.702-.588 9.525-1.051zM34.23 72.308l-.02-.016-4.736 2.83L24 66.613l9.784 46.96c0 2.017 4.372 3.817 11.207 4.995z"></path><path fill="#f2ecbb" d="M39.005 43.071s13.967-2.25 25.183-8.339 11.11-13.17 11.11-13.17C76.209 16.782 67.955 8 67.955 8a85.888 85.888 0 0 1-4.95 9.636c-2.561 4.097-13.316 11.096-19.462 14.51-4.96 2.756-4.95 9.218-4.95 9.218Z"></path><path fill="#f4d590" d="M71.88 12.867a12.772 12.772 0 0 1-4.285 8.894c-4.61 4.328-19.983 12.198-28.49 16.389a13.226 13.226 0 0 0-.513 3.215l.413 1.706s13.967-2.25 25.183-8.338 11.11-13.17 11.11-13.17c.462-2.426-1.436-5.88-3.418-8.696Z"></path><path fill="#f2ecbb" d="M81.493 35.659S76.728 43.6 60.051 48.763s-24.355 1.72-24.355 1.72l-.349-1.262s-1.194-3.76 1.025-6.32 16.477-4.347 25.437-9.787c11.152-6.772 14.027-12.057 14.027-12.057a6.523 6.523 0 0 1 5.092 4.602 10.93 10.93 0 0 1 .307 7.455Z"></path><path fill="#f4d590" d="M80.928 25.66c-.025-.07-.055-.13-.081-.199-2.695 3.15-10.89 11.29-27.547 16.948a61.18 61.18 0 0 1-18.205 3.47 8.628 8.628 0 0 0 .252 3.342l.349 1.263s7.677 3.441 24.355-1.721 21.442-13.104 21.442-13.104l-.258-2.545a10.93 10.93 0 0 0-.307-7.455Z"></path><path fill="#f2ecbb" d="M32.387 59.352s17.232 4.368 35.022 1.19S91.721 44.13 91.721 44.13a11.114 11.114 0 0 0-2.428-7.033c-2.79-3.735-8.058-3.983-8.058-3.983s-1.331 4.154-18.744 11.665c-16.696 7.202-27.037 3.396-29.192 4.78-3.188 2.049-3.188 8.043-3.188 8.043Z"></path><path fill="#f4d590" d="M89.375 37.214c-3.308 3.13-9.47 10.887-28.454 16.049-15.127 4.113-26.322 2.107-30.432 1.188a16.528 16.528 0 0 0-.378 3.151l2.276 1.75s17.232 4.368 35.022 1.191S91.721 44.13 91.721 44.13a11.098 11.098 0 0 0-2.346-6.916Z"></path><path fill="#f2ecbb" d="M29.609 57.998s7.057 8.21 32.121 7.979 36.13-8.396 36.13-8.396 1.947-3.153.14-7.851a12.902 12.902 0 0 0-5.598-6.41 47.443 47.443 0 0 1-24.106 14.26 93.07 93.07 0 0 1-38.687.418Z"></path><path fill="#f4d590" d="M59.366 63.035c-10.23.788-17.813.11-23.308-1.053 4.875 2.055 12.951 4.112 25.672 3.995 25.065-.231 36.13-8.396 36.13-8.396a8.865 8.865 0 0 0 .58-6.44c-.758.62-12.45 9.843-39.074 11.894Z"></path></svg>